<svg xmlns="http://www.w3.org/2000/svg" viewBox="0 0 1200 300" role="img" aria-labelledby="title desc">
<title id="title">Raspored</title><desc id="desc">Raspored logo s kalendarskom ikonom i menta i safir tonovima.</desc>
<defs><linearGradient id="bg" x1="0" y1="0" x2="1" y2="1"><stop stop-color="#1B304C"/><stop offset="1" stop-color="#090F1B"/></linearGradient><linearGradient id="cyan" x1="0" y1="0" x2="1" y2="1"><stop stop-color="#C3F8EB"/><stop offset=".55" stop-color="#7CEBD6"/><stop offset="1" stop-color="#08a8f0"/></linearGradient></defs>
<rect width="1200" height="300" rx="54" fill="#090F1B"/>
<g transform="translate(54 38)"><rect width="224" height="224" rx="60" fill="url(#bg)" stroke="#7CEBD6" stroke-width="5"/><rect x="49" y="55" width="126" height="42" rx="14" fill="url(#cyan)"/><rect x="73" y="28" width="22" height="48" rx="11" fill="#78C6FF"/><rect x="129" y="28" width="22" height="48" rx="11" fill="#78C6FF"/><g fill="url(#cyan)"><rect x="54" y="118" width="34" height="34" rx="9"/><rect x="95" y="118" width="34" height="34" rx="9"/><rect x="136" y="118" width="34" height="34" rx="9"/><rect x="54" y="162" width="34" height="34" rx="9"/><rect x="95" y="162" width="34" height="34" rx="9"/><rect x="136" y="162" width="34" height="34" rx="9"/></g></g>
<text x="330" y="172" fill="#F4F7FD" font-family="Inter,Segoe UI,Arial,sans-serif" font-size="116" font-weight="800">Raspored</text><text x="336" y="224" fill="#B8C7DB" font-family="Inter,Segoe UI,Arial,sans-serif" font-size="28" letter-spacing="6">PAMETNI PLANER SMJENA</text>
</svg>